<svg xmlns="http://www.w3.org/2000/svg" width="56.886" height="61.208" viewBox="0 0 56.886 61.208"><defs><style>.a{fill:#fa382f;}</style></defs><path class="a" d="M25.251,55.252a2.782,2.782,0,0,0-3.285-2.735c-3.641.668-8.238.769-9.461-2.665A15.875,15.875,0,0,0,7.4,43.135a3.34,3.34,0,0,1-.463-.3,2.781,2.781,0,0,0-2.589-1.8H4.33A2.78,2.78,0,0,0,1.549,43.8c-.011,2.268,2.256,3.721,3.175,4.213A12.352,12.352,0,0,1,7.294,51.8c1.013,2.847,3.958,7.166,12.421,6.609,0,.1.005.19.007.274l.012.744a2.781,2.781,0,1,0,5.563,0l-.014-.886C25.27,58.011,25.251,57.248,25.251,55.252Zm29.67-42.072c.088-.348.175-.733.251-1.168a17.462,17.462,0,0,0-1.135-9.159,2.787,2.787,0,0,0-1.713-1.613C51.334.9,47.678.247,40.686,4.716a38.577,38.577,0,0,0-17.673,0C16.05.313,12.413.91,11.432,1.225A2.774,2.774,0,0,0,9.676,2.85a17.524,17.524,0,0,0-1.122,9.336c.068.356.141.685.217.986A17.438,17.438,0,0,0,5.28,23.822,23.425,23.425,0,0,0,5.4,26.386c.929,12.8,9.273,16.645,15.087,17.965-.121.348-.231.72-.329,1.114a2.782,2.782,0,1,0,5.4,1.331,4.668,4.668,0,0,1,1.3-2.442A2.78,2.78,0,0,0,25.342,39.5c-9.607-1.1-13.778-5.011-14.406-13.625a18.387,18.387,0,0,1-.094-2.053A11.843,11.843,0,0,1,13.4,16.276a8.4,8.4,0,0,1,.545-.644,2.781,2.781,0,0,0,.523-2.849,9.423,9.423,0,0,1-.432-1.546,11.386,11.386,0,0,1,.219-4.493,20.979,20.979,0,0,1,6.717,3.281,2.806,2.806,0,0,0,2.3.369,32.758,32.758,0,0,1,17.17,0,2.8,2.8,0,0,0,2.31-.383A21.061,21.061,0,0,1,49.443,6.7a11.236,11.236,0,0,1,.243,4.389,8.915,8.915,0,0,1-.47,1.69,2.781,2.781,0,0,0,.523,2.849c.215.242.429.5.622.747a11.465,11.465,0,0,1,2.509,7.443,19.576,19.576,0,0,1-.1,2.162c-.613,8.5-4.8,12.416-14.452,13.516A2.781,2.781,0,0,0,36.8,44.357a4.536,4.536,0,0,1,1.3,2.526,8.513,8.513,0,0,1,.257,2.279v6.492c-.027,1.8-.027,3.151-.027,3.77a2.781,2.781,0,0,0,5.563,0c0-.6,0-1.926.027-3.727V49.162a13.578,13.578,0,0,0-.431-3.648,11.838,11.838,0,0,0-.323-1.157A18.114,18.114,0,0,0,58.305,26.489a24.188,24.188,0,0,0,.128-2.667A17.052,17.052,0,0,0,54.921,13.18Z" transform="translate(-1.549 -0.997)"/></svg>